<svg width="26" height="30" viewBox="0 0 26 30" fill="none" xmlns="http://www.w3.org/2000/svg">
<path d="M2.875 2.625V25.125H23.125V2.625H2.875ZM2.875 0.375H23.125C24.3676 0.375 25.375 1.38236 25.375 2.625V25.125C25.375 26.3676 24.3676 27.375 23.125 27.375H2.875C1.63236 27.375 0.625 26.3676 0.625 25.125V2.625C0.625 1.38236 1.63236 0.375 2.875 0.375Z" fill="white"/>
<path d="M18.5996 5.9571C17.9783 5.9571 17.4746 5.45342 17.4746 4.8321C17.4746 4.21078 17.9783 3.7071 18.5996 3.7071H20.9084C21.5297 3.7071 22.0334 4.21078 22.0334 4.8321C22.0334 5.45342 21.5297 5.9571 20.9084 5.9571H18.5996Z" fill="white"/>
<path d="M15.261 6C14.6397 6 14.136 5.49632 14.136 4.875C14.136 4.25368 14.6397 3.75 15.261 3.75C15.8823 3.75 16.386 4.25368 16.386 4.875C16.386 5.49632 15.8823 6 15.261 6ZM11.8991 6C11.2778 6 10.7741 5.49632 10.7741 4.875C10.7741 4.25368 11.2778 3.75 11.8991 3.75C12.5204 3.75 13.0241 4.25368 13.0241 4.875C13.0241 5.49632 12.5204 6 11.8991 6ZM4.00587 26.2403C4.00587 25.619 4.50955 25.1153 5.13087 25.1153C5.75219 25.1153 6.25587 25.619 6.25587 26.2403L6.25 28.4964C6.25 29.1177 5.74632 29.6214 5.125 29.6214C4.50368 29.6214 4 29.1177 4 28.4964L4.00587 26.2403ZM19.7547 26.2486C19.7547 25.6273 20.2583 25.1236 20.8797 25.1236C21.501 25.1236 22.0047 25.6273 22.0047 26.2486V28.4964C22.0047 29.1177 21.501 29.6214 20.8797 29.6214C20.2583 29.6214 19.7547 29.1177 19.7547 28.4964V26.2486ZM13 24C9.27208 24 6.25 20.9779 6.25 17.25C6.25 13.5221 9.27208 10.5 13 10.5C16.7279 10.5 19.75 13.5221 19.75 17.25C19.75 20.9779 16.7279 24 13 24ZM13 21.75C15.4853 21.75 17.5 19.7353 17.5 17.25C17.5 14.7647 15.4853 12.75 13 12.75C10.5147 12.75 8.5 14.7647 8.5 17.25C8.5 19.7353 10.5147 21.75 13 21.75Z" fill="white"/>
<path d="M13 13.875C13.6213 13.875 14.125 14.3787 14.125 15C14.125 15.6213 13.6213 16.125 13 16.125C12.3787 16.125 11.875 16.6287 11.875 17.25C11.875 17.8713 11.3713 18.375 10.75 18.375C10.1287 18.375 9.625 17.8713 9.625 17.25C9.625 15.386 11.136 13.875 13 13.875Z" fill="white"/>
<path d="M1.75 9.3975V7.1475H24.25V9.3975H1.75Z" fill="white"/>
</svg>
