<svg width="31" height="28" viewBox="0 0 31 28" fill="none" xmlns="http://www.w3.org/2000/svg">
<path d="M15.5039 0.799805C20.0687 0.799805 24.5486 1.88746 28.5811 3.94531L29.3818 4.37012L29.3867 4.37305L29.8701 4.65625L29.8789 4.66211L29.8867 4.66797C30.0202 4.76586 30.116 4.90887 30.1641 5.05762C30.211 5.20329 30.2179 5.37612 30.1416 5.5293L26.7578 12.6211L26.7559 12.626C26.6952 12.7446 26.6126 12.8449 26.5049 12.915C26.3963 12.9857 26.2731 13.0185 26.1426 13.0186C26.1196 13.0186 26.0679 13.0186 26.0137 13.0098C25.9743 13.0033 25.9121 12.9877 25.8535 12.9482C25.5394 12.8321 25.2211 12.6986 24.8916 12.5791V24.6367C24.8914 24.8599 24.747 25.0503 24.6377 25.1572C24.6112 25.1831 24.5477 25.2321 24.457 25.293C24.3613 25.3572 24.2253 25.4421 24.0459 25.54C23.6865 25.7363 23.1521 25.9865 22.4219 26.2324C20.9612 26.7244 18.7149 27.2002 15.5039 27.2002C12.2932 27.2001 10.0475 26.7243 8.58691 26.2324C7.85674 25.9865 7.3223 25.7363 6.96289 25.54C6.78349 25.4421 6.64744 25.3572 6.55176 25.293C6.48032 25.245 6.42647 25.2034 6.39355 25.1758C6.18392 25.0348 6.11727 24.8239 6.11719 24.6367V12.5791C5.7954 12.6895 5.49005 12.8017 5.1582 12.9453C5.09869 12.9865 5.03526 13.0032 4.99512 13.0098C4.94092 13.0186 4.8892 13.0186 4.86621 13.0186C4.59751 13.0184 4.39488 12.8824 4.2666 12.6943L4.25781 12.6816L4.25098 12.668L0.866211 5.57715L0.861328 5.56641C0.80016 5.41676 0.779246 5.25221 0.824219 5.09375C0.87012 4.9322 0.978916 4.7979 1.13867 4.7041L1.62207 4.41992L1.62598 4.41797C5.8627 2.03758 10.6349 0.799885 15.5039 0.799805ZM20.0303 2.50977C19.731 4.72959 17.8514 6.40039 15.5039 6.40039C13.1563 6.40016 11.2783 4.68573 10.9775 2.50977C7.95574 3.03266 5.02966 4.04004 2.37402 5.53223L5.21094 11.4814C5.35421 11.4305 5.50137 11.3795 5.64746 11.3291C5.80703 11.274 5.96501 11.2185 6.11719 11.1641V8.36328H7.48438V24.2793C8.26324 24.7009 10.6973 25.8544 15.5039 25.8545C20.3109 25.8545 22.7455 24.7009 23.5244 24.2793V8.36328H24.8916V11.1641C25.0438 11.2185 25.2018 11.274 25.3613 11.3291C25.5075 11.3795 25.6545 11.4314 25.7979 11.4824L28.6807 5.53223C25.9784 4.03988 23.0514 3.03244 20.0303 2.50977ZM15.5039 2.14551C14.4702 2.14553 13.3926 2.22812 12.3447 2.31641C12.5701 3.86704 13.8891 5.05446 15.5039 5.05469C17.1248 5.05469 18.4849 3.86221 18.6709 2.31738C17.6207 2.22887 16.54 2.14551 15.5039 2.14551Z" fill="white" stroke="white" stroke-width="0.4"/>
</svg>
