<svg width="12" height="12" viewBox="0 0 12 12" fill="none" xmlns="http://www.w3.org/2000/svg">
<path d="M10.7014 2.79429C10.429 2.44064 10.0766 2.15657 9.67318 1.96536C9.26977 1.77416 8.82679 1.68126 8.38055 1.69429C7.94573 1.70377 7.51956 1.81762 7.13795 2.02626C6.75633 2.2349 6.43046 2.5322 6.18778 2.89313C6.12268 2.98926 6.05987 3.08878 5.9999 3.19086C5.9399 3.08878 5.87713 2.98926 5.81203 2.89313C5.56935 2.5322 5.24348 2.23488 4.86186 2.02624C4.48025 1.8176 4.05408 1.70374 3.61925 1.69425C3.17311 1.68191 2.73036 1.77511 2.32706 1.96627C1.92375 2.15743 1.5713 2.44114 1.2984 2.79429C0.537315 3.78626 0.569734 5.16358 1.3809 6.30332C2.8574 8.37772 5.77753 10.2022 5.90103 10.2787C5.93072 10.2972 5.96496 10.3069 5.9999 10.3069C6.03484 10.3069 6.06909 10.2972 6.09877 10.2787C6.22228 10.2021 9.14237 8.37765 10.6188 6.30324C11.4301 5.16358 11.4625 3.78626 10.7014 2.79429Z" fill="#EA7173"/>
</svg>
