<svg width="13" height="10" viewBox="0 0 13 10" fill="none" xmlns="http://www.w3.org/2000/svg">
<path d="M3.32129 0.500977C3.74569 0.510292 4.16168 0.621616 4.53418 0.825195C4.90688 1.02897 5.22588 1.31937 5.46289 1.67188L5.46387 1.67383C5.53317 1.77618 5.59976 1.8828 5.66406 1.99219L6.0957 2.72559L6.52637 1.99219C6.59059 1.88285 6.65812 1.77635 6.72754 1.67383L6.72852 1.67188C6.96549 1.31948 7.28365 1.02893 7.65625 0.825195C8.02893 0.621442 8.44548 0.510251 8.87012 0.500977H9.03809C9.42105 0.512422 9.79821 0.603033 10.1455 0.767578C10.5423 0.955626 10.8892 1.23525 11.1572 1.58301C11.8865 2.53384 11.8856 3.88973 11.0508 5.0625C10.2359 6.20728 9.00461 7.30289 7.9375 8.13477C7.10874 8.78082 6.39594 9.24927 6.09473 9.44336C5.79298 9.24892 5.08162 8.77998 4.25391 8.13477C3.25342 7.35486 2.10841 6.34318 1.29785 5.27637L1.14062 5.0625C0.305839 3.88957 0.304764 2.53385 1.03418 1.58301L1.0332 1.58203C1.30173 1.23498 1.64937 0.956504 2.0459 0.768555C2.39321 0.603972 2.77035 0.512994 3.15332 0.500977H3.32129Z" stroke="#7D8FAB"/>
</svg>
