<svg width="34" height="30" viewBox="0 0 34 30" fill="none" xmlns="http://www.w3.org/2000/svg">
<path d="M32.9721 13.2704C32.8481 12.8416 32.5125 12.506 32.0837 12.382C31.8432 12.3123 26.1458 10.7266 21.9021 14.9708C19.7599 17.1137 19.3875 20.3334 20.8383 22.6777L17.9607 25.5558V15.3971C20.6441 14.7656 22.6568 12.2241 22.6568 9.1935C22.6568 3.19075 17.5069 0.282419 17.2876 0.161673C16.8966 -0.053891 16.4223 -0.053891 16.0313 0.161673C15.8119 0.282419 10.662 3.19075 10.662 9.1935C10.662 12.2241 12.6748 14.7656 15.3582 15.3971V25.5558L12.4829 22.68C13.8914 20.4166 13.6296 17.1841 11.4165 14.9708C7.17308 10.7266 1.47563 12.3126 1.23516 12.382C0.806315 12.506 0.471022 12.8416 0.346717 13.2704C0.277319 13.5111 -1.3084 19.2099 2.93501 23.454C5.11022 25.6295 8.32919 25.9488 10.6402 24.5181L15.7313 29.6101C16.2441 30.1327 17.0804 30.1274 17.588 29.6098L22.6772 24.5196C24.9536 25.9368 28.1807 25.6574 30.3838 23.454C34.6272 19.2096 33.0415 13.5109 32.9721 13.2704ZM10.5458 20.7422L8.9558 19.1519C8.44765 18.6437 7.62378 18.6437 7.11538 19.1519C6.60722 19.6603 6.60722 20.4844 7.11538 20.9926L8.70491 22.5824C7.43694 23.0509 5.87766 22.7158 4.77518 21.6133C2.93501 19.7727 2.34195 17.2433 2.70267 14.7384C5.19131 14.3797 7.72343 14.9583 9.57631 16.8114C10.7123 17.9477 11.0014 19.5121 10.5458 20.7422ZM16.6594 9.10809C15.9408 9.10809 15.3582 9.69097 15.3582 10.4096V12.658C14.1304 12.0927 13.2645 10.7528 13.2645 9.1935C13.2645 6.58792 14.6367 4.37864 16.6617 2.8641C17.7942 3.70831 20.0543 5.81692 20.0543 9.1935C20.0543 10.7528 19.1887 12.0927 17.9607 12.658V10.4096C17.9607 9.69097 17.3781 9.10809 16.6594 9.10809ZM28.5434 21.6133C27.4074 22.7496 25.8433 23.0387 24.6134 22.5829L26.2035 20.9928C26.7114 20.4844 26.7114 19.6603 26.2035 19.1521C25.6953 18.644 24.8714 18.644 24.363 19.1521L22.7738 20.7417C22.305 19.4735 22.6401 17.9142 23.7425 16.8114C25.5982 14.9555 28.1438 14.3815 30.619 14.7389C30.8228 16.1365 30.9304 19.2259 28.5434 21.6133Z" fill="white"/>
</svg>
