<svg width="22" height="21" viewBox="0 0 22 21" fill="none" xmlns="http://www.w3.org/2000/svg">
<path d="M21.4401 10.7893C21.3838 10.9263 21.2883 11.0436 21.1655 11.1263C21.0427 11.2091 20.8982 11.2536 20.7501 11.2543H18.5001V18.7543C18.5001 19.3511 18.2631 19.9234 17.8411 20.3453C17.4191 20.7673 16.8468 21.0043 16.2501 21.0043H13.2501C13.0512 21.0043 12.8604 20.9253 12.7198 20.7847C12.5791 20.644 12.5001 20.4533 12.5001 20.2543V15.7543C12.5001 15.5554 12.4211 15.3647 12.2804 15.224C12.1398 15.0834 11.949 15.0043 11.7501 15.0043H10.2501C10.0512 15.0043 9.86043 15.0834 9.71978 15.224C9.57912 15.3647 9.5001 15.5554 9.5001 15.7543V20.2543C9.5001 20.4533 9.42109 20.644 9.28043 20.7847C9.13978 20.9253 8.94902 21.0043 8.7501 21.0043H5.75011C5.15337 21.0043 4.58107 20.7673 4.15911 20.3453C3.73716 19.9234 3.5001 19.3511 3.5001 18.7543V11.2543H1.2501C1.10204 11.2536 0.957498 11.2091 0.834708 11.1263C0.711918 11.0436 0.61637 10.9263 0.560105 10.7893C0.50267 10.6528 0.486978 10.5022 0.515009 10.3567C0.543039 10.2112 0.613536 10.0773 0.717605 9.97185L10.4676 0.221849C10.5373 0.151552 10.6203 0.0957567 10.7117 0.0576802C10.8031 0.0196037 10.9011 0 11.0001 0C11.0991 0 11.1971 0.0196037 11.2885 0.0576802C11.3799 0.0957567 11.4629 0.151552 11.5326 0.221849L21.2826 9.97185C21.3867 10.0773 21.4572 10.2112 21.4852 10.3567C21.5132 10.5022 21.4975 10.6528 21.4401 10.7893Z" fill="#C5C5C5"/>
</svg>
