<svg width="16" height="14" viewBox="0 0 16 14" fill="none" xmlns="http://www.w3.org/2000/svg">
<path d="M4.12002 14C3.99638 14.0004 3.87422 13.9731 3.76245 13.9203C3.65069 13.8674 3.55215 13.7902 3.47404 13.6944C3.39593 13.5985 3.34021 13.4864 3.31097 13.3663C3.28173 13.2462 3.2797 13.121 3.30502 13L3.97002 9.11L1.14502 6.365C1.03433 6.25687 0.956075 6.11995 0.919084 5.96969C0.882093 5.81944 0.887842 5.66184 0.935682 5.51468C0.983522 5.36752 1.07155 5.23666 1.18982 5.13688C1.3081 5.0371 1.45191 4.97237 1.60502 4.95L5.50002 4.385L7.24502 0.845001C7.31232 0.703042 7.41852 0.583097 7.55128 0.499106C7.68405 0.415116 7.83792 0.370529 7.99502 0.370529C8.15212 0.370529 8.306 0.415116 8.43876 0.499106C8.57153 0.583097 8.67773 0.703042 8.74502 0.845001L10.5 4.385L14.405 4.955C14.5581 4.97737 14.702 5.0421 14.8202 5.14188C14.9385 5.24166 15.0265 5.37252 15.0744 5.51968C15.1222 5.66684 15.128 5.82444 15.091 5.97469C15.054 6.12495 14.9757 6.26187 14.865 6.37L12.04 9.125L12.695 13C12.7211 13.1518 12.7044 13.3078 12.6469 13.4507C12.5893 13.5935 12.4932 13.7176 12.3692 13.8089C12.2452 13.9002 12.0982 13.9552 11.9447 13.9678C11.7912 13.9803 11.6372 13.95 11.5 13.88L8.00002 12.045L4.50002 13.88C4.38506 13.9505 4.25459 13.9917 4.12002 14ZM2.09502 5.89L4.73502 8.465C4.83203 8.55859 4.90462 8.67451 4.94646 8.80264C4.9883 8.93077 4.9981 9.0672 4.97502 9.2L4.35002 12.83L7.61502 11.115C7.73382 11.0528 7.86592 11.0203 8.00002 11.0203C8.13412 11.0203 8.26622 11.0528 8.38502 11.115L11.65 12.83L11.025 9.195C11.0019 9.0622 11.0117 8.92578 11.0536 8.79764C11.0954 8.66951 11.168 8.55359 11.265 8.46L13.905 5.885L10.255 5.355C10.1217 5.33556 9.9952 5.28398 9.88631 5.20471C9.77743 5.12544 9.68947 5.02086 9.63002 4.9L8.00002 1.6L6.37002 4.905C6.31058 5.02586 6.22262 5.13044 6.11373 5.20971C6.00484 5.28898 5.8783 5.34056 5.74502 5.36L2.09502 5.89Z" fill="#FFA902"/>
<path d="M8.2951 1.06501L10.0801 4.68501C10.1035 4.73246 10.138 4.77358 10.1806 4.8049C10.2233 4.83623 10.2728 4.85684 10.3251 4.86501L14.3251 5.44501C14.3838 5.45605 14.4384 5.48281 14.4831 5.52245C14.5278 5.56209 14.5609 5.61312 14.5788 5.67009C14.5968 5.72706 14.599 5.78784 14.5851 5.84594C14.5712 5.90404 14.5419 5.95729 14.5001 6.00001L11.6101 8.81501C11.5721 8.85213 11.5436 8.89788 11.5271 8.94837C11.5105 8.99886 11.5064 9.05259 11.5151 9.10501L12.1951 13.105C12.2081 13.1685 12.2022 13.2343 12.178 13.2944C12.1539 13.3545 12.1126 13.4062 12.0592 13.4429C12.0059 13.4797 11.943 13.5 11.8782 13.5013C11.8135 13.5025 11.7498 13.4847 11.6951 13.45L8.1251 11.57C8.07801 11.5455 8.0257 11.5327 7.9726 11.5327C7.9195 11.5327 7.86719 11.5455 7.8201 11.57L4.2751 13.435C4.22041 13.4697 4.15672 13.4875 4.09196 13.4863C4.02721 13.485 3.96426 13.4647 3.91095 13.4279C3.85765 13.3912 3.81634 13.3395 3.79219 13.2794C3.76803 13.2193 3.76209 13.1535 3.7751 13.09L4.4551 9.09001C4.46378 9.03759 4.45968 8.98386 4.44314 8.93337C4.4266 8.88288 4.39811 8.83713 4.3601 8.80001L1.5001 6.00001C1.45689 5.95711 1.42639 5.9031 1.41197 5.84394C1.39755 5.78478 1.39979 5.72279 1.41842 5.66483C1.43705 5.60686 1.47136 5.55518 1.51754 5.5155C1.56373 5.47582 1.61999 5.44969 1.6801 5.44001L5.6801 4.86001C5.73238 4.85184 5.78192 4.83123 5.82456 4.7999C5.8672 4.76858 5.90168 4.72746 5.9251 4.68001L7.7101 1.06001C7.73847 1.0068 7.78087 0.962387 7.83271 0.931583C7.88454 0.90078 7.94382 0.884766 8.00412 0.885281C8.06441 0.885797 8.12341 0.902821 8.17471 0.934506C8.22601 0.966191 8.26765 1.01133 8.2951 1.06501Z" fill="#FFA902"/>
</svg>
